<svg xmlns="http://www.w3.org/2000/svg" xmlns:xlink="http://www.w3.org/1999/xlink" width="500" zoomAndPan="magnify" viewBox="0 0 375 374.999991" height="500" preserveAspectRatio="xMidYMid meet" version="1.0"><defs><g/><clipPath id="eecdbe67d1"><rect x="0" width="135" y="0" height="262"/></clipPath><clipPath id="a811f0b674"><rect x="0" width="167" y="0" height="224"/></clipPath></defs><g transform="matrix(1, 0, 0, 1, 70, 95)"><g clip-path="url(#eecdbe67d1)"><g fill="#292929" fill-opacity="1"><g transform="translate(1.421479, 196.016521)"><g><path d="M 64.03125 -131.40625 C 77.757812 -131.40625 89.789062 -128.617188 100.125 -123.046875 C 110.457031 -117.484375 118.40625 -109.75 123.96875 -99.84375 C 129.539062 -89.945312 132.328125 -78.691406 132.328125 -66.078125 C 132.328125 -53.578125 129.539062 -42.316406 123.96875 -32.296875 C 118.40625 -22.273438 110.457031 -14.382812 100.125 -8.625 C 89.789062 -2.875 77.757812 0 64.03125 0 L 9.28125 0 L 9.28125 -131.40625 Z M 60.3125 -36.75 C 69.59375 -36.75 76.953125 -39.285156 82.390625 -44.359375 C 87.835938 -49.429688 90.5625 -56.671875 90.5625 -66.078125 C 90.5625 -75.472656 87.835938 -82.707031 82.390625 -87.78125 C 76.953125 -92.851562 69.59375 -95.390625 60.3125 -95.390625 L 50.484375 -95.390625 L 50.484375 -36.75 Z M 60.3125 -36.75 "/></g></g></g></g></g><g transform="matrix(1, 0, 0, 1, 133, 47)"><g clip-path="url(#a811f0b674)"><g fill="#292929" fill-opacity="1"><g transform="translate(1.685306, 167.260597)"><g><path d="M 162.90625 -111.25 L 133.90625 0 L 101.109375 0 L 83.359375 -73.21875 L 64.96875 0 L 32.171875 0 L 3.96875 -111.25 L 32.96875 -111.25 L 48.96875 -30.265625 L 68.78125 -111.25 L 98.5625 -111.25 L 117.578125 -30.265625 L 133.75 -111.25 Z M 162.90625 -111.25 "/></g></g></g></g></g></svg>

